<svg xmlns="http://www.w3.org/2000/svg" viewBox="0 0 96 96" role="img" aria-label="HeiTang black tiger head">
  <rect width="96" height="96" rx="24" fill="#f7f7f5"/>
  <path d="M19 42c0-18 13-31 29-31s29 13 29 31v19c0 19-12 30-29 30S19 80 19 61Z" fill="#111111"/>
  <path d="M22 34 14 18l20 7M74 34l8-16-20 7" fill="#111111"/>
  <path d="M48 16v20M34 22l6 18M62 22l-6 18" stroke="#f7f7f5" stroke-width="5" stroke-linecap="round"/>
  <circle cx="37" cy="55" r="5" fill="#f7f7f5"/>
  <circle cx="59" cy="55" r="5" fill="#f7f7f5"/>
  <path d="M43 68h10l-5 7Z" fill="#f7f7f5"/>
  <path d="M31 76c7 5 31 5 38 0" fill="none" stroke="#f7f7f5" stroke-width="4" stroke-linecap="round"/>
</svg>
